inDegrees=no
num_controls=7
num_derivatives=13
num_iterations=159
num_multipliers=7
num_parameters=0
num_slacks=7
num_states=26
objective=0.509704
objective_accelerations=0.039335
objective_balance=0.003507
objective_effort=0.029069
objective_height=0.324739
objective_ligament=0.113054
solver_duration=2016.421137
status=Solve_Succeeded
success=true
DataType=double
version=3
OpenSimVersion=4.5
endheader
time	/jointset/ground_pelvis/pelvis_tilt/value	/jointset/ground_pelvis/pelvis_tx/value	/jointset/ground_pelvis/pelvis_ty/value	/jointset/hip_l/hip_flexion_l/value	/jointset/hip_l/hip_adduction_l/value	/jointset/hip_l/hip_rotation_l/value	/jointset/back/lumbar_extension/value	/jointset/patellofemoral_l/patellar_flexion_l/value	/jointset/knee_l/knee_flexion_l/value	/jointset/knee_l/knee_adduction_l/value	/jointset/knee_l/knee_rotation_l/value	/jointset/ankle_l/ankle_angle_l/value	/jointset/subtalar_l/subtalar_angle_l/value	/jointset/ground_pelvis/pelvis_tilt/speed	/jointset/ground_pelvis/pelvis_tx/speed	/jointset/ground_pelvis/pelvis_ty/speed	/jointset/hip_l/hip_flexion_l/speed	/jointset/hip_l/hip_adduction_l/speed	/jointset/hip_l/hip_rotation_l/speed	/jointset/back/lumbar_extension/speed	/jointset/patellofemoral_l/patellar_flexion_l/speed	/jointset/knee_l/knee_flexion_l/speed	/jointset/knee_l/knee_adduction_l/speed	/jointset/knee_l/knee_rotation_l/speed	/jointset/ankle_l/ankle_angle_l/speed	/jointset/subtalar_l/subtalar_angle_l/speed	/forceset/tau_hip_flexion_l	/forceset/tau_hip_adduction_l	/forceset/tau_hip_rotation_l	/forceset/tau_knee_flexion_l	/forceset/tau_ankle_angle_l	/forceset/tau_subtalar_angle_l	/forceset/tau_lumbar_extension	lambda_cid13_p0	lambda_cid13_p1	lambda_cid13_p2	lambda_cid13_p3	lambda_cid13_p4	lambda_cid13_p5	lambda_cid14_p0	/jointset/ground_pelvis/pelvis_tilt/accel	/jointset/ground_pelvis/pelvis_tx/accel	/jointset/ground_pelvis/pelvis_ty/accel	/jointset/hip_l/hip_flexion_l/accel	/jointset/hip_l/hip_adduction_l/accel	/jointset/hip_l/hip_rotation_l/accel	/jointset/back/lumbar_extension/accel	/jointset/patellofemoral_l/patellar_flexion_l/accel	/jointset/knee_l/knee_flexion_l/accel	/jointset/knee_l/knee_adduction_l/accel	/jointset/knee_l/knee_rotation_l/accel	/jointset/ankle_l/ankle_angle_l/accel	/jointset/subtalar_l/subtalar_angle_l/accel	gamma_cid13_p0	gamma_cid13_p1	gamma_cid13_p2	gamma_cid13_p3	gamma_cid13_p4	gamma_cid13_p5	gamma_cid14_p0
0	-0.01706614170330403	0.04727496304462391	0.9233274600667574	0.3085816938045678	-0.2606640163093328	-0.3178333686049135	-0.3879492264334186	0.2499269421184997	0.2499269421184919	-0.1010488086178332	-0.1745302798662737	-0.0008036623358878681	0.03702648530437336	0	0	0	0	0	0	0	0	0	0	0	0	0	0.1067441226883913	-0.03290669898814413	-0.01712289942421527	-0.3055228232209505	0.283298907947117	-0.05469528645649398	-0.01618421532316106	44.56785963952206	15.43199044881607	-2.32215071436447	-0.5496724662389082	-634.251601709408	-49.04339035201717	-22.93308996571078	-1.580359153299919	-1.887488952981866	-0.8084856173384785	8.174357311427579	-0.3649141898513507	2.003053051216115	-6.948311179220507	6.674314815455353	6.674314815455451	1.502331198958662	-0.03721342613373981	0.5011557346507435	-0.2205570563166973	7.422000418225512e-09	9.063852533677098e-08	-3.024839018602707e-08	1.773234855010479e-09	4.456448659974975e-08	2.801116342432607e-08	1.30458755935187e-08
0.01	-0.01714153797189101	0.0471807339696839	0.9232877754111737	0.3089817986119255	-0.2606828718650466	-0.3177327499772667	-0.3882952986443189	0.2502537459752392	0.2502537459752321	-0.1009776260012456	-0.1745302542220279	-0.0007815323131075312	0.03701372291807294	-0.01500062762614517	-0.01884692506904848	-0.00791631354691838	0.07970501128410964	-0.003797672085923797	0.02004592404824515	-0.06878278701533459	0.06499474354957588	0.0649947435495775	0.01404417265458452	8.729224267860834e-06	0.004239253984213218	-0.002648913884616549	0.09594396137115889	-0.03443571183827893	-0.01616403834635714	-0.2896213714351035	0.2590732364936956	-0.04389828136146673	-0.008119756963475852	37.17066661876019	11.78472827617811	-1.451327979017585	3.906139009016711	-636.0265858090079	-55.51497309610784	-22.93734214968609	-1.448122431648159	-1.883460442136725	-0.7801026750206168	7.821179425657723	-0.3911898724801867	1.993701963592556	-6.778514187467832	6.357147345845167	6.357147345845318	1.326621194998679	0.02044739823293469	0.3572999638653111	-0.3015348393914376	4.140513631529547e-09	9.409842011333231e-08	-2.798072180475688e-09	7.440205616679195e-09	1.897549709930066e-08	2.469997669688461e-08	1.158367654146819e-08
0.02	-0.01736458208962732	0.04689800241239821	0.9231695479297896	0.3101694748098693	-0.2607405033725288	-0.3174340041327515	-0.3893162490703326	0.2512195159117053	0.2512195159117054	-0.1007717694788296	-0.174530035025258	-0.0007226118037775551	0.03697157613595471	-0.02952956982731629	-0.03770049646913881	-0.01570856516005656	0.1575142781183917	-0.007755190352573729	0.03962544337505051	-0.1349756430217461	0.1277932159446088	0.1277932159446136	0.02693478116077536	3.871050956901609e-05	0.007358097310768828	-0.005876879163533193	0.08514380005398489	-0.03596472468832992	-0.01520517726856545	-0.2737199196492153	0.2348475650403182	-0.0331012762663345	-5.529860378652283e-05	29.82915564418195	8.130206720334774	-0.5821913831963125	8.328687458578756	-636.9409208426463	-61.90711922321456	-22.94986075460483	-1.486022068304809	-1.88881821919051	-0.7836732305824485	7.795208421462108	-0.3968834259966018	1.909772106928148	-6.430324977435717	6.235060584546797	6.235060584547203	1.271618369279885	-0.03296301392713495	0.2770736031189072	-0.3363673351768596	8.590268448335812e-10	9.755831488989365e-08	2.465224582507569e-08	1.310717637834791e-08	-6.613492401148437e-09	2.138878996944315e-08	1.012147748941769e-08
0.03	-0.01773062673599858	0.04642885784667064	0.9229740455070824	0.312123865352905	-0.2608387869781446	-0.3169418174004528	-0.3909844610543116	0.2528037241573199	0.2528037241573202	-0.1004428871678226	-0.1745296249154639	-0.0006346385536425143	0.0368952544691869	-0.04358362191343469	-0.05591400698504033	-0.02336515028850339	0.2328293470702122	-0.0119636355416935	0.05875816472659661	-0.1980908689654668	0.1888267309046116	0.1888267309046257	0.03862036387431748	4.577838542599638e-05	0.01039897353786017	-0.009391441699607555	0.07969213236022753	-0.03050683929817011	-0.01505413154890168	-0.2720866039329176	0.2381715821726119	-0.03673083937447234	0.005658072000669776	30.71151178730427	9.539903606978251	-0.7930826317678747	5.778230522171807	-638.7747585503861	-58.16546108843199	-22.97020015102948	-1.350736875404724	-1.755453370502355	-0.7526372161611079	7.319482503096573	-0.4421570605725033	1.906961791631381	-6.165738681101179	6.004239592309836	6.004239592310841	1.083848175031046	0.01791333267187701	0.3419612916768272	-0.3596172777769323	-1.307179354626844e-08	6.876736988753927e-08	5.601862113135494e-08	2.463488995116656e-08	-7.300625409817012e-08	-3.454910651264649e-09	4.067368824768628e-09
0.04	-0.01823433992256813	0.04578401099524052	0.9227027800206531	0.3148153718596677	-0.2609810214346939	-0.3162599155261697	-0.3932665487533831	0.2549916160806567	0.2549916160806576	-0.1000037850391357	-0.1745290697980476	-0.0005113832094041815	0.03678366386406729	-0.05706327786509733	-0.07284095360964754	-0.03086117790448854	0.30493747086419	-0.01654536053895043	0.07756847177269087	-0.2577507860395875	0.2485299514879253	0.2485299514879448	0.04897874469343591	6.771203447164929e-05	0.01441451613184865	-0.01293066683385942	0.07424046466652157	-0.02504895390796206	-0.01490308582930273	-0.2704532882165852	0.2414955993049341	-0.04036040248254826	0.01137144260514016	31.64475278990747	10.94296282760966	-1.005510053304132	3.192548536233661	-639.830854876017	-54.34760619892311	-22.99790927169574	-1.371142841413346	-1.631505440931915	-0.7515617280901219	7.15381938989364	-0.4715393876240592	1.84528924583777	-5.739263203515524	5.96900170920899	5.969001709208627	1.006177990395103	-0.02998985928945277	0.4720068764980225	-0.3412998548125019	-2.72221878261211e-08	3.931145911654744e-08	8.746573988713375e-08	3.628344358194707e-08	-1.402403306858428e-07	-2.874258063059651e-08	-2.081418388593805e-09
0.05	-0.0188704336383159	0.04497560370982022	0.9223571525398736	0.3182133276275053	-0.2611706226863446	-0.3153921673681921	-0.3961290155675716	0.2577696066896817	0.2577696066896806	-0.09946724922874821	-0.1745286907735924	-0.0003442532933236359	0.03663646509836135	-0.07008141484915234	-0.08869737490899117	-0.03825406635218966	0.374223200282735	-0.02141013808195668	0.09591907502361145	-0.3142969744834059	0.3068049199874507	0.3068049199874592	0.05813533267770665	1.859926897747825e-05	0.01905686879008875	-0.01652873183412008	0.0680667421994143	-0.02460066508079447	-0.0145351890444131	-0.2665926422231876	0.2382381036199953	-0.03790556848526341	0.01698830253157082	30.7361126505822	10.01089474348844	-0.8283230571246993	2.333056163922897	-640.4965461550881	-55.42975701791653	-23.03244990264426	-1.256040292997056	-1.541233839534811	-0.7316432096280417	6.751375514861722	-0.499247359639483	1.820620146187679	-5.545456317187928	5.717257336874593	5.717257336873096	0.8414493242582757	0.009218792796935098	0.4671598697155626	-0.3720227139975028	-3.570298557066543e-08	-3.541815155170464e-09	1.042998339069088e-07	4.206580663649158e-08	-1.86166881120581e-07	-4.518098160073469e-08	-8.357273060305676e-09
